<svg width="57" height="58" viewBox="0 0 57 58" fill="none" xmlns="http://www.w3.org/2000/svg">
<path d="M53.4112 29.8541H51.921V24.4375C51.921 20.7215 49.0598 17.6352 45.483 17.6352L30.4611 17.6356V12.0301C32.6666 11.1483 34.2166 8.88086 34.2166 6.23553C34.2166 2.7713 31.5937 0 28.3151 0C25.0365 0 22.4135 2.77141 22.4135 6.23553C22.4135 8.88086 23.9633 11.0854 26.1691 12.0301V17.6356H11.0875C7.57058 17.6356 4.64954 20.6588 4.64954 24.4379V29.8545L3.21877 29.8541C1.43034 29.8541 0 31.3658 0 33.255V41.2541C0 43.1437 1.43077 44.655 3.21877 44.655H4.70905V50.5756C4.70905 54.2915 7.57026 57.3779 11.147 57.3779H45.5425C49.0594 57.3779 51.9805 54.3548 51.9805 50.5756V44.655H53.4707C55.2592 44.655 56.6895 43.1433 56.6895 41.2541V33.2554C56.6301 31.4287 55.1993 29.8541 53.4112 29.8541V29.8541ZM14.4853 32.4365C14.4853 29.6024 16.6313 27.335 19.3137 27.335C21.9961 27.335 24.1421 29.6024 24.1421 32.4365C24.1421 35.2707 21.9961 37.5381 19.3137 37.5381C16.6313 37.5381 14.4853 35.2707 14.4853 32.4365V32.4365ZM33.0243 48.4345H23.6061C22.414 48.4345 21.4601 47.4266 21.4601 46.1671C21.4601 44.9075 22.414 43.8996 23.6061 43.8996H32.9652C34.1574 43.8996 35.1112 44.9075 35.1112 46.1671C35.1703 47.4266 34.157 48.4345 33.0243 48.4345V48.4345ZM37.3163 37.5379C34.6339 37.5379 32.4879 35.2705 32.4879 32.4363C32.4879 29.6022 34.6339 27.3347 37.3163 27.3347C39.9987 27.3347 42.1447 29.6022 42.1447 32.4363C42.1451 35.2705 39.9991 37.5379 37.3163 37.5379Z" fill="#1E90FF"/>
</svg>
