<svg width="232" height="50" viewBox="0 0 232 50" fill="none" xmlns="http://www.w3.org/2000/svg">
<path d="M73.3615 43.448C69.7562 43.448 67.0042 42.4453 65.1055 40.44C63.2282 38.4347 62.2895 35.5867 62.2895 31.896C62.2895 30.0613 62.5775 28.4293 63.1535 27C63.7295 25.5493 64.5188 24.3333 65.5215 23.352C66.5242 22.3493 67.7188 21.592 69.1055 21.08C70.4922 20.568 71.9962 20.312 73.6175 20.312C74.5562 20.312 75.4095 20.3867 76.1775 20.536C76.9455 20.664 77.6175 20.824 78.1935 21.016C78.7695 21.1867 79.2495 21.368 79.6335 21.56C80.0175 21.752 80.2948 21.9013 80.4655 22.008L79.0255 26.04C78.3428 25.6773 77.5428 25.368 76.6255 25.112C75.7295 24.856 74.7055 24.728 73.5535 24.728C72.7855 24.728 72.0282 24.856 71.2815 25.112C70.5562 25.368 69.9055 25.784 69.3295 26.36C68.7748 26.9147 68.3268 27.64 67.9855 28.536C67.6442 29.432 67.4735 30.52 67.4735 31.8C67.4735 32.824 67.5802 33.784 67.7935 34.68C68.0282 35.5547 68.3908 36.312 68.8815 36.952C69.3935 37.592 70.0548 38.104 70.8655 38.488C71.6762 38.8507 72.6575 39.032 73.8095 39.032C74.5348 39.032 75.1855 38.9893 75.7615 38.904C76.3375 38.8187 76.8495 38.7227 77.2975 38.616C77.7455 38.488 78.1402 38.3493 78.4815 38.2C78.8228 38.0507 79.1322 37.912 79.4095 37.784L80.7855 41.784C80.0815 42.2107 79.0895 42.5947 77.8095 42.936C76.5295 43.2773 75.0468 43.448 73.3615 43.448ZM97.6413 42.424C96.8306 42.6587 95.7853 42.872 94.5053 43.064C93.2253 43.2773 91.8813 43.384 90.4733 43.384C89.0439 43.384 87.8493 43.192 86.8893 42.808C85.9506 42.424 85.2039 41.8907 84.6493 41.208C84.0946 40.504 83.6999 39.672 83.4653 38.712C83.2306 37.752 83.1133 36.696 83.1133 35.544V26.168H87.8813V34.968C87.8813 36.504 88.0839 37.6133 88.4893 38.296C88.8946 38.9787 89.6519 39.32 90.7613 39.32C91.1026 39.32 91.4653 39.3093 91.8493 39.288C92.2333 39.2453 92.5746 39.2027 92.8733 39.16V26.168H97.6413V42.424ZM106.949 39.576C107.824 39.576 108.442 39.4907 108.805 39.32C109.168 39.1493 109.349 38.8187 109.349 38.328C109.349 37.944 109.114 37.6133 108.645 37.336C108.176 37.0373 107.461 36.7067 106.501 36.344C105.754 36.0667 105.072 35.7787 104.453 35.48C103.856 35.1813 103.344 34.8293 102.917 34.424C102.49 33.9973 102.16 33.496 101.925 32.92C101.69 32.344 101.573 31.6507 101.573 30.84C101.573 29.2613 102.16 28.0133 103.333 27.096C104.506 26.1787 106.117 25.72 108.165 25.72C109.189 25.72 110.17 25.816 111.109 26.008C112.048 26.1787 112.794 26.3707 113.349 26.584L112.517 30.296C111.962 30.104 111.354 29.9333 110.693 29.784C110.053 29.6347 109.328 29.56 108.517 29.56C107.024 29.56 106.277 29.976 106.277 30.808C106.277 31 106.309 31.1707 106.373 31.32C106.437 31.4693 106.565 31.6187 106.757 31.768C106.949 31.896 107.205 32.0453 107.525 32.216C107.866 32.3653 108.293 32.536 108.805 32.728C109.85 33.112 110.714 33.496 111.397 33.88C112.08 34.2427 112.613 34.648 112.997 35.096C113.402 35.5227 113.68 36.0027 113.829 36.536C114 37.0693 114.085 37.688 114.085 38.392C114.085 40.056 113.456 41.3147 112.197 42.168C110.96 43.0213 109.2 43.448 106.917 43.448C105.424 43.448 104.176 43.32 103.173 43.064C102.192 42.808 101.509 42.5947 101.125 42.424L101.925 38.552C102.736 38.872 103.568 39.128 104.421 39.32C105.274 39.4907 106.117 39.576 106.949 39.576ZM117.488 21.976L122.256 21.208V26.168H127.984V30.136H122.256V36.056C122.256 37.0587 122.427 37.8587 122.768 38.456C123.131 39.0533 123.846 39.352 124.912 39.352C125.424 39.352 125.947 39.3093 126.48 39.224C127.035 39.1173 127.536 38.9787 127.984 38.808L128.656 42.52C128.08 42.7547 127.44 42.9573 126.736 43.128C126.032 43.2987 125.168 43.384 124.144 43.384C122.843 43.384 121.766 43.2133 120.912 42.872C120.059 42.5093 119.376 42.0187 118.864 41.4C118.352 40.76 117.99 39.992 117.776 39.096C117.584 38.2 117.488 37.208 117.488 36.12V21.976ZM146.986 34.552C146.986 35.8747 146.794 37.0907 146.41 38.2C146.026 39.288 145.471 40.2267 144.746 41.016C144.021 41.784 143.146 42.3813 142.122 42.808C141.119 43.2347 139.989 43.448 138.73 43.448C137.493 43.448 136.362 43.2347 135.338 42.808C134.335 42.3813 133.471 41.784 132.746 41.016C132.021 40.2267 131.455 39.288 131.05 38.2C130.645 37.0907 130.442 35.8747 130.442 34.552C130.442 33.2293 130.645 32.024 131.05 30.936C131.477 29.848 132.053 28.92 132.778 28.152C133.525 27.384 134.399 26.7867 135.402 26.36C136.426 25.9333 137.535 25.72 138.73 25.72C139.946 25.72 141.055 25.9333 142.058 26.36C143.082 26.7867 143.957 27.384 144.682 28.152C145.407 28.92 145.973 29.848 146.378 30.936C146.783 32.024 146.986 33.2293 146.986 34.552ZM142.122 34.552C142.122 33.08 141.823 31.928 141.226 31.096C140.65 30.2427 139.818 29.816 138.73 29.816C137.642 29.816 136.799 30.2427 136.202 31.096C135.605 31.928 135.306 33.08 135.306 34.552C135.306 36.024 135.605 37.1973 136.202 38.072C136.799 38.9253 137.642 39.352 138.73 39.352C139.818 39.352 140.65 38.9253 141.226 38.072C141.823 37.1973 142.122 36.024 142.122 34.552ZM159.928 34.072C159.928 32.536 159.725 31.448 159.32 30.808C158.936 30.168 158.264 29.848 157.304 29.848C157.005 29.848 156.696 29.8693 156.376 29.912C156.056 29.9333 155.746 29.9653 155.448 30.008V43H150.68V26.744C151.085 26.6373 151.554 26.5307 152.088 26.424C152.642 26.296 153.218 26.1893 153.816 26.104C154.434 25.9973 155.064 25.9227 155.704 25.88C156.344 25.816 156.973 25.784 157.592 25.784C158.808 25.784 159.789 25.944 160.536 26.264C161.304 26.5627 161.933 26.9253 162.424 27.352C163.106 26.8613 163.885 26.4773 164.76 26.2C165.656 25.9227 166.477 25.784 167.224 25.784C168.568 25.784 169.666 25.976 170.52 26.36C171.394 26.7227 172.088 27.2453 172.6 27.928C173.112 28.6107 173.464 29.4213 173.656 30.36C173.848 31.2987 173.944 32.344 173.944 33.496V43H169.176V34.072C169.176 32.536 168.973 31.448 168.568 30.808C168.184 30.168 167.512 29.848 166.552 29.848C166.296 29.848 165.933 29.912 165.464 30.04C165.016 30.168 164.642 30.328 164.344 30.52C164.493 31.0107 164.589 31.5333 164.632 32.088C164.674 32.6213 164.696 33.1973 164.696 33.816V43H159.928V34.072Z" fill="#7A7A7A"/>
<path d="M185.985 43.288C184.769 43.288 183.553 43.2453 182.337 43.16C181.143 43.096 179.895 42.9253 178.593 42.648V21.144C179.617 20.952 180.737 20.8133 181.953 20.728C183.169 20.6213 184.3 20.568 185.345 20.568C186.753 20.568 188.044 20.6747 189.217 20.888C190.412 21.08 191.436 21.4213 192.289 21.912C193.143 22.4027 193.804 23.0533 194.273 23.864C194.764 24.6533 195.009 25.6347 195.009 26.808C195.009 28.5787 194.156 29.976 192.449 31C193.857 31.5333 194.817 32.2587 195.329 33.176C195.841 34.0933 196.097 35.128 196.097 36.28C196.097 38.6053 195.244 40.3547 193.537 41.528C191.852 42.7013 189.335 43.288 185.985 43.288ZM183.457 33.336V39.064C183.82 39.1067 184.215 39.1387 184.641 39.16C185.068 39.1813 185.537 39.192 186.049 39.192C187.543 39.192 188.748 38.9787 189.665 38.552C190.583 38.1253 191.041 37.336 191.041 36.184C191.041 35.16 190.657 34.4347 189.889 34.008C189.121 33.56 188.023 33.336 186.593 33.336H183.457ZM183.457 29.528H185.889C187.425 29.528 188.524 29.336 189.185 28.952C189.847 28.5467 190.177 27.9067 190.177 27.032C190.177 26.136 189.836 25.5067 189.153 25.144C188.471 24.7813 187.468 24.6 186.145 24.6C185.719 24.6 185.26 24.6107 184.769 24.632C184.279 24.632 183.841 24.6533 183.457 24.696V29.528ZM215.517 34.552C215.517 35.8747 215.325 37.0907 214.941 38.2C214.557 39.288 214.003 40.2267 213.277 41.016C212.552 41.784 211.677 42.3813 210.653 42.808C209.651 43.2347 208.52 43.448 207.261 43.448C206.024 43.448 204.893 43.2347 203.869 42.808C202.867 42.3813 202.003 41.784 201.277 41.016C200.552 40.2267 199.987 39.288 199.581 38.2C199.176 37.0907 198.973 35.8747 198.973 34.552C198.973 33.2293 199.176 32.024 199.581 30.936C200.008 29.848 200.584 28.92 201.309 28.152C202.056 27.384 202.931 26.7867 203.933 26.36C204.957 25.9333 206.067 25.72 207.261 25.72C208.477 25.72 209.587 25.9333 210.589 26.36C211.613 26.7867 212.488 27.384 213.213 28.152C213.939 28.92 214.504 29.848 214.909 30.936C215.315 32.024 215.517 33.2293 215.517 34.552ZM210.653 34.552C210.653 33.08 210.355 31.928 209.757 31.096C209.181 30.2427 208.349 29.816 207.261 29.816C206.173 29.816 205.331 30.2427 204.733 31.096C204.136 31.928 203.837 33.08 203.837 34.552C203.837 36.024 204.136 37.1973 204.733 38.072C205.331 38.9253 206.173 39.352 207.261 39.352C208.349 39.352 209.181 38.9253 209.757 38.072C210.355 37.1973 210.653 36.024 210.653 34.552ZM219.051 21.976L223.819 21.208V26.168H229.547V30.136H223.819V36.056C223.819 37.0587 223.989 37.8587 224.331 38.456C224.693 39.0533 225.408 39.352 226.475 39.352C226.987 39.352 227.509 39.3093 228.043 39.224C228.597 39.1173 229.099 38.9787 229.547 38.808L230.219 42.52C229.643 42.7547 229.003 42.9573 228.299 43.128C227.595 43.2987 226.731 43.384 225.707 43.384C224.405 43.384 223.328 43.2133 222.475 42.872C221.621 42.5093 220.939 42.0187 220.427 41.4C219.915 40.76 219.552 39.992 219.339 39.096C219.147 38.2 219.051 37.208 219.051 36.12V21.976Z" fill="#94C7F9"/>
<path d="M46.5434 26.0153H45.2448V21.2952C45.2448 18.0571 42.7515 15.3676 39.6346 15.3676L26.5443 15.368V10.4832C28.4662 9.71481 29.8169 7.73892 29.8169 5.43374C29.8169 2.41495 27.5312 0 24.6742 0C21.8172 0 19.5315 2.41505 19.5315 5.43374C19.5315 7.73892 20.882 9.66 22.8042 10.4832V15.368H9.66184C6.59713 15.368 4.05169 18.0024 4.05169 21.2956V26.0157L2.80489 26.0153C1.24642 26.0153 0 27.3327 0 28.9789V35.9495C0 37.5961 1.24679 38.9131 2.80489 38.9131H4.10354V44.0724C4.10354 47.3105 6.59685 50 9.71369 50H39.6865C42.7512 50 45.2966 47.3656 45.2966 44.0724V38.9131H46.5953C48.1537 38.9131 49.4002 37.5957 49.4002 35.9495V28.9793C49.3484 27.3875 48.1015 26.0153 46.5434 26.0153V26.0153ZM12.6228 28.2657C12.6228 25.796 14.4928 23.8201 16.8303 23.8201C19.1678 23.8201 21.0378 25.796 21.0378 28.2657C21.0378 30.7355 19.1678 32.7113 16.8303 32.7113C14.4928 32.7113 12.6228 30.7355 12.6228 28.2657V28.2657ZM28.7779 42.2066H20.5708C19.5319 42.2066 18.7007 41.3283 18.7007 40.2307C18.7007 39.1331 19.5319 38.2548 20.5708 38.2548H28.7264C29.7653 38.2548 30.5965 39.1331 30.5965 40.2307C30.648 41.3283 29.7649 42.2066 28.7779 42.2066V42.2066ZM32.518 32.7111C30.1806 32.7111 28.3105 30.7353 28.3105 28.2655C28.3105 25.7958 30.1806 23.8199 32.518 23.8199C34.8555 23.8199 36.7256 25.7958 36.7256 28.2655C36.7259 30.7353 34.8559 32.7111 32.518 32.7111Z" fill="#94C7F9"/>
</svg>
