<svg width="325" height="63" viewBox="0 0 325 63" fill="none" xmlns="http://www.w3.org/2000/svg">
<path d="M53.4112 29.8541H51.921V24.4375C51.921 20.7215 49.0598 17.6352 45.483 17.6352L30.4611 17.6356V12.0301C32.6666 11.1483 34.2166 8.88086 34.2166 6.23553C34.2166 2.7713 31.5937 0 28.3151 0C25.0365 0 22.4135 2.77141 22.4135 6.23553C22.4135 8.88086 23.9633 11.0854 26.1691 12.0301V17.6356H11.0875C7.57058 17.6356 4.64954 20.6588 4.64954 24.4379V29.8545L3.21877 29.8541C1.43034 29.8541 0 31.3658 0 33.255V41.2541C0 43.1437 1.43077 44.655 3.21877 44.655H4.70905V50.5756C4.70905 54.2915 7.57026 57.3779 11.147 57.3779H45.5425C49.0594 57.3779 51.9805 54.3548 51.9805 50.5756V44.655H53.4707C55.2592 44.655 56.6895 43.1433 56.6895 41.2541V33.2554C56.6301 31.4287 55.1993 29.8541 53.4112 29.8541ZM14.4853 32.4365C14.4853 29.6024 16.6313 27.335 19.3137 27.335C21.9961 27.335 24.1421 29.6024 24.1421 32.4365C24.1421 35.2707 21.9961 37.5381 19.3137 37.5381C16.6313 37.5381 14.4853 35.2707 14.4853 32.4365ZM33.0243 48.4345H23.6061C22.414 48.4345 21.4601 47.4266 21.4601 46.1671C21.4601 44.9075 22.414 43.8996 23.6061 43.8996H32.9652C34.1574 43.8996 35.1112 44.9075 35.1112 46.1671C35.1703 47.4266 34.157 48.4345 33.0243 48.4345ZM37.3163 37.5379C34.6339 37.5379 32.4879 35.2705 32.4879 32.4363C32.4879 29.6022 34.6339 27.3347 37.3163 27.3347C39.9987 27.3347 42.1447 29.6022 42.1447 32.4363C42.1451 35.2705 39.9991 37.5379 37.3163 37.5379Z" fill="#1E90FF"/>
<path d="M88.008 53.672C82.6 53.672 78.472 52.168 75.624 49.16C72.808 46.152 71.4 41.88 71.4 36.344C71.4 33.592 71.832 31.144 72.696 29C73.56 26.824 74.744 25 76.248 23.528C77.752 22.024 79.544 20.888 81.624 20.12C83.704 19.352 85.96 18.968 88.392 18.968C89.8 18.968 91.08 19.08 92.232 19.304C93.384 19.496 94.392 19.736 95.256 20.024C96.12 20.28 96.84 20.552 97.416 20.84C97.992 21.128 98.408 21.352 98.664 21.512L96.504 27.56C95.48 27.016 94.28 26.552 92.904 26.168C91.56 25.784 90.024 25.592 88.296 25.592C87.144 25.592 86.008 25.784 84.888 26.168C83.8 26.552 82.824 27.176 81.96 28.04C81.128 28.872 80.456 29.96 79.944 31.304C79.432 32.648 79.176 34.28 79.176 36.2C79.176 37.736 79.336 39.176 79.656 40.52C80.008 41.832 80.552 42.968 81.288 43.928C82.056 44.888 83.048 45.656 84.264 46.232C85.48 46.776 86.952 47.048 88.68 47.048C89.768 47.048 90.744 46.984 91.608 46.856C92.472 46.728 93.24 46.584 93.912 46.424C94.584 46.232 95.176 46.024 95.688 45.8C96.2 45.576 96.664 45.368 97.08 45.176L99.144 51.176C98.088 51.816 96.6 52.392 94.68 52.904C92.76 53.416 90.536 53.672 88.008 53.672ZM124.428 52.136C123.212 52.488 121.644 52.808 119.724 53.096C117.804 53.416 115.788 53.576 113.676 53.576C111.532 53.576 109.74 53.288 108.3 52.712C106.892 52.136 105.772 51.336 104.94 50.312C104.108 49.256 103.516 48.008 103.164 46.568C102.812 45.128 102.636 43.544 102.636 41.816V27.752H109.788V40.952C109.788 43.256 110.092 44.92 110.7 45.944C111.308 46.968 112.444 47.48 114.108 47.48C114.62 47.48 115.164 47.464 115.74 47.432C116.316 47.368 116.828 47.304 117.276 47.24V27.752H124.428V52.136ZM138.389 47.864C139.701 47.864 140.629 47.736 141.173 47.48C141.717 47.224 141.989 46.728 141.989 45.992C141.989 45.416 141.637 44.92 140.933 44.504C140.229 44.056 139.157 43.56 137.717 43.016C136.597 42.6 135.573 42.168 134.645 41.72C133.749 41.272 132.981 40.744 132.341 40.136C131.701 39.496 131.205 38.744 130.853 37.88C130.501 37.016 130.325 35.976 130.325 34.76C130.325 32.392 131.205 30.52 132.965 29.144C134.725 27.768 137.141 27.08 140.213 27.08C141.749 27.08 143.221 27.224 144.629 27.512C146.037 27.768 147.157 28.056 147.989 28.376L146.741 33.944C145.909 33.656 144.997 33.4 144.005 33.176C143.045 32.952 141.957 32.84 140.741 32.84C138.501 32.84 137.381 33.464 137.381 34.712C137.381 35 137.429 35.256 137.525 35.48C137.621 35.704 137.813 35.928 138.101 36.152C138.389 36.344 138.773 36.568 139.253 36.824C139.765 37.048 140.405 37.304 141.173 37.592C142.741 38.168 144.037 38.744 145.061 39.32C146.085 39.864 146.885 40.472 147.461 41.144C148.069 41.784 148.485 42.504 148.709 43.304C148.965 44.104 149.093 45.032 149.093 46.088C149.093 48.584 148.149 50.472 146.261 51.752C144.405 53.032 141.765 53.672 138.341 53.672C136.101 53.672 134.229 53.48 132.725 53.096C131.253 52.712 130.229 52.392 129.653 52.136L130.853 46.328C132.069 46.808 133.317 47.192 134.597 47.48C135.877 47.736 137.141 47.864 138.389 47.864ZM154.198 21.464L161.35 20.312V27.752H169.942V33.704H161.35V42.584C161.35 44.088 161.606 45.288 162.118 46.184C162.662 47.08 163.734 47.528 165.334 47.528C166.102 47.528 166.886 47.464 167.686 47.336C168.518 47.176 169.27 46.968 169.942 46.712L170.95 52.28C170.086 52.632 169.126 52.936 168.07 53.192C167.014 53.448 165.718 53.576 164.182 53.576C162.23 53.576 160.614 53.32 159.334 52.808C158.054 52.264 157.03 51.528 156.262 50.6C155.494 49.64 154.95 48.488 154.63 47.144C154.342 45.8 154.198 44.312 154.198 42.68V21.464ZM198.445 40.328C198.445 42.312 198.157 44.136 197.581 45.8C197.005 47.432 196.173 48.84 195.085 50.024C193.997 51.176 192.685 52.072 191.149 52.712C189.645 53.352 187.949 53.672 186.061 53.672C184.205 53.672 182.509 53.352 180.973 52.712C179.469 52.072 178.173 51.176 177.085 50.024C175.997 48.84 175.149 47.432 174.541 45.8C173.933 44.136 173.629 42.312 173.629 40.328C173.629 38.344 173.933 36.536 174.541 34.904C175.181 33.272 176.045 31.88 177.133 30.728C178.253 29.576 179.565 28.68 181.069 28.04C182.605 27.4 184.269 27.08 186.061 27.08C187.885 27.08 189.549 27.4 191.053 28.04C192.589 28.68 193.901 29.576 194.989 30.728C196.077 31.88 196.925 33.272 197.533 34.904C198.141 36.536 198.445 38.344 198.445 40.328ZM191.149 40.328C191.149 38.12 190.701 36.392 189.805 35.144C188.941 33.864 187.693 33.224 186.061 33.224C184.429 33.224 183.165 33.864 182.269 35.144C181.373 36.392 180.925 38.12 180.925 40.328C180.925 42.536 181.373 44.296 182.269 45.608C183.165 46.888 184.429 47.528 186.061 47.528C187.693 47.528 188.941 46.888 189.805 45.608C190.701 44.296 191.149 42.536 191.149 40.328ZM217.857 39.608C217.857 37.304 217.553 35.672 216.945 34.712C216.369 33.752 215.361 33.272 213.921 33.272C213.473 33.272 213.009 33.304 212.529 33.368C212.049 33.4 211.585 33.448 211.137 33.512V53H203.985V28.616C204.593 28.456 205.297 28.296 206.097 28.136C206.929 27.944 207.793 27.784 208.689 27.656C209.617 27.496 210.561 27.384 211.521 27.32C212.481 27.224 213.425 27.176 214.353 27.176C216.177 27.176 217.649 27.416 218.769 27.896C219.921 28.344 220.865 28.888 221.601 29.528C222.625 28.792 223.793 28.216 225.105 27.8C226.449 27.384 227.681 27.176 228.801 27.176C230.817 27.176 232.465 27.464 233.745 28.04C235.057 28.584 236.097 29.368 236.865 30.392C237.633 31.416 238.161 32.632 238.449 34.04C238.737 35.448 238.881 37.016 238.881 38.744V53H231.729V39.608C231.729 37.304 231.425 35.672 230.817 34.712C230.241 33.752 229.233 33.272 227.793 33.272C227.409 33.272 226.865 33.368 226.161 33.56C225.489 33.752 224.929 33.992 224.481 34.28C224.705 35.016 224.849 35.8 224.913 36.632C224.977 37.432 225.009 38.296 225.009 39.224V53H217.857V39.608Z" fill="#3F3E3E"/>
<path d="M256.944 53.432C255.12 53.432 253.296 53.368 251.472 53.24C249.68 53.144 247.808 52.888 245.856 52.472V20.216C247.392 19.928 249.072 19.72 250.896 19.592C252.72 19.432 254.416 19.352 255.984 19.352C258.096 19.352 260.032 19.512 261.792 19.832C263.584 20.12 265.12 20.632 266.4 21.368C267.68 22.104 268.672 23.08 269.376 24.296C270.112 25.48 270.48 26.952 270.48 28.712C270.48 31.368 269.2 33.464 266.64 35C268.752 35.8 270.192 36.888 270.96 38.264C271.728 39.64 272.112 41.192 272.112 42.92C272.112 46.408 270.832 49.032 268.272 50.792C265.744 52.552 261.968 53.432 256.944 53.432ZM253.152 38.504V47.096C253.696 47.16 254.288 47.208 254.928 47.24C255.568 47.272 256.272 47.288 257.04 47.288C259.28 47.288 261.088 46.968 262.464 46.328C263.84 45.688 264.528 44.504 264.528 42.776C264.528 41.24 263.952 40.152 262.8 39.512C261.648 38.84 260 38.504 257.856 38.504H253.152ZM253.152 32.792H256.8C259.104 32.792 260.752 32.504 261.744 31.928C262.736 31.32 263.232 30.36 263.232 29.048C263.232 27.704 262.72 26.76 261.696 26.216C260.672 25.672 259.168 25.4 257.184 25.4C256.544 25.4 255.856 25.416 255.12 25.448C254.384 25.448 253.728 25.48 253.152 25.544V32.792ZM301.242 40.328C301.242 42.312 300.954 44.136 300.378 45.8C299.802 47.432 298.97 48.84 297.882 50.024C296.794 51.176 295.482 52.072 293.946 52.712C292.442 53.352 290.746 53.672 288.858 53.672C287.002 53.672 285.306 53.352 283.77 52.712C282.266 52.072 280.97 51.176 279.882 50.024C278.794 48.84 277.946 47.432 277.338 45.8C276.73 44.136 276.426 42.312 276.426 40.328C276.426 38.344 276.73 36.536 277.338 34.904C277.978 33.272 278.842 31.88 279.93 30.728C281.05 29.576 282.362 28.68 283.866 28.04C285.402 27.4 287.066 27.08 288.858 27.08C290.682 27.08 292.346 27.4 293.85 28.04C295.386 28.68 296.698 29.576 297.786 30.728C298.874 31.88 299.722 33.272 300.33 34.904C300.938 36.536 301.242 38.344 301.242 40.328ZM293.946 40.328C293.946 38.12 293.498 36.392 292.602 35.144C291.738 33.864 290.49 33.224 288.858 33.224C287.226 33.224 285.962 33.864 285.066 35.144C284.17 36.392 283.722 38.12 283.722 40.328C283.722 42.536 284.17 44.296 285.066 45.608C285.962 46.888 287.226 47.528 288.858 47.528C290.49 47.528 291.738 46.888 292.602 45.608C293.498 44.296 293.946 42.536 293.946 40.328ZM306.542 21.464L313.694 20.312V27.752H322.286V33.704H313.694V42.584C313.694 44.088 313.95 45.288 314.462 46.184C315.006 47.08 316.078 47.528 317.678 47.528C318.446 47.528 319.23 47.464 320.03 47.336C320.862 47.176 321.614 46.968 322.286 46.712L323.294 52.28C322.43 52.632 321.47 52.936 320.414 53.192C319.358 53.448 318.062 53.576 316.526 53.576C314.574 53.576 312.958 53.32 311.678 52.808C310.398 52.264 309.374 51.528 308.606 50.6C307.838 49.64 307.294 48.488 306.974 47.144C306.686 45.8 306.542 44.312 306.542 42.68V21.464Z" fill="#1E90FF"/>
</svg>
