<svg width="320" height="63" viewBox="0 0 320 63" fill="none" xmlns="http://www.w3.org/2000/svg">
<path d="M53.4112 29.8541H51.921V24.4375C51.921 20.7215 49.0598 17.6352 45.483 17.6352L30.4611 17.6356V12.0301C32.6666 11.1483 34.2166 8.88086 34.2166 6.23553C34.2166 2.7713 31.5937 0 28.3151 0C25.0365 0 22.4135 2.77141 22.4135 6.23553C22.4135 8.88086 23.9633 11.0854 26.1691 12.0301V17.6356H11.0875C7.57058 17.6356 4.64954 20.6588 4.64954 24.4379V29.8545L3.21877 29.8541C1.43034 29.8541 0 31.3658 0 33.255V41.2541C0 43.1437 1.43077 44.655 3.21877 44.655H4.70905V50.5756C4.70905 54.2915 7.57026 57.3779 11.147 57.3779H45.5425C49.0594 57.3779 51.9805 54.3548 51.9805 50.5756V44.655H53.4707C55.2592 44.655 56.6895 43.1433 56.6895 41.2541V33.2554C56.6301 31.4287 55.1993 29.8541 53.4112 29.8541V29.8541ZM14.4853 32.4365C14.4853 29.6024 16.6313 27.335 19.3137 27.335C21.9961 27.335 24.1421 29.6024 24.1421 32.4365C24.1421 35.2707 21.9961 37.5381 19.3137 37.5381C16.6313 37.5381 14.4853 35.2707 14.4853 32.4365V32.4365ZM33.0243 48.4345H23.6061C22.414 48.4345 21.4601 47.4266 21.4601 46.1671C21.4601 44.9075 22.414 43.8996 23.6061 43.8996H32.9652C34.1574 43.8996 35.1112 44.9075 35.1112 46.1671C35.1703 47.4266 34.157 48.4345 33.0243 48.4345V48.4345ZM37.3163 37.5379C34.6339 37.5379 32.4879 35.2705 32.4879 32.4363C32.4879 29.6022 34.6339 27.3347 37.3163 27.3347C39.9987 27.3347 42.1447 29.6022 42.1447 32.4363C42.1451 35.2705 39.9991 37.5379 37.3163 37.5379Z" fill="#1E90FF"/>
<path d="M83.008 53.672C77.6 53.672 73.472 52.168 70.624 49.16C67.808 46.152 66.4 41.88 66.4 36.344C66.4 33.592 66.832 31.144 67.696 29C68.56 26.824 69.744 25 71.248 23.528C72.752 22.024 74.544 20.888 76.624 20.12C78.704 19.352 80.96 18.968 83.392 18.968C84.8 18.968 86.08 19.08 87.232 19.304C88.384 19.496 89.392 19.736 90.256 20.024C91.12 20.28 91.84 20.552 92.416 20.84C92.992 21.128 93.408 21.352 93.664 21.512L91.504 27.56C90.48 27.016 89.28 26.552 87.904 26.168C86.56 25.784 85.024 25.592 83.296 25.592C82.144 25.592 81.008 25.784 79.888 26.168C78.8 26.552 77.824 27.176 76.96 28.04C76.128 28.872 75.456 29.96 74.944 31.304C74.432 32.648 74.176 34.28 74.176 36.2C74.176 37.736 74.336 39.176 74.656 40.52C75.008 41.832 75.552 42.968 76.288 43.928C77.056 44.888 78.048 45.656 79.264 46.232C80.48 46.776 81.952 47.048 83.68 47.048C84.768 47.048 85.744 46.984 86.608 46.856C87.472 46.728 88.24 46.584 88.912 46.424C89.584 46.232 90.176 46.024 90.688 45.8C91.2 45.576 91.664 45.368 92.08 45.176L94.144 51.176C93.088 51.816 91.6 52.392 89.68 52.904C87.76 53.416 85.536 53.672 83.008 53.672ZM119.428 52.136C118.212 52.488 116.644 52.808 114.724 53.096C112.804 53.416 110.788 53.576 108.676 53.576C106.532 53.576 104.74 53.288 103.3 52.712C101.892 52.136 100.772 51.336 99.9396 50.312C99.1076 49.256 98.5156 48.008 98.1636 46.568C97.8116 45.128 97.6356 43.544 97.6356 41.816V27.752H104.788V40.952C104.788 43.256 105.092 44.92 105.7 45.944C106.308 46.968 107.444 47.48 109.108 47.48C109.62 47.48 110.164 47.464 110.74 47.432C111.316 47.368 111.828 47.304 112.276 47.24V27.752H119.428V52.136ZM133.389 47.864C134.701 47.864 135.629 47.736 136.173 47.48C136.717 47.224 136.989 46.728 136.989 45.992C136.989 45.416 136.637 44.92 135.933 44.504C135.229 44.056 134.157 43.56 132.717 43.016C131.597 42.6 130.573 42.168 129.645 41.72C128.749 41.272 127.981 40.744 127.341 40.136C126.701 39.496 126.205 38.744 125.853 37.88C125.501 37.016 125.325 35.976 125.325 34.76C125.325 32.392 126.205 30.52 127.965 29.144C129.725 27.768 132.141 27.08 135.213 27.08C136.749 27.08 138.221 27.224 139.629 27.512C141.037 27.768 142.157 28.056 142.989 28.376L141.741 33.944C140.909 33.656 139.997 33.4 139.005 33.176C138.045 32.952 136.957 32.84 135.741 32.84C133.501 32.84 132.381 33.464 132.381 34.712C132.381 35 132.429 35.256 132.525 35.48C132.621 35.704 132.813 35.928 133.101 36.152C133.389 36.344 133.773 36.568 134.253 36.824C134.765 37.048 135.405 37.304 136.173 37.592C137.741 38.168 139.037 38.744 140.061 39.32C141.085 39.864 141.885 40.472 142.461 41.144C143.069 41.784 143.485 42.504 143.709 43.304C143.965 44.104 144.093 45.032 144.093 46.088C144.093 48.584 143.149 50.472 141.261 51.752C139.405 53.032 136.765 53.672 133.341 53.672C131.101 53.672 129.229 53.48 127.725 53.096C126.253 52.712 125.229 52.392 124.653 52.136L125.853 46.328C127.069 46.808 128.317 47.192 129.597 47.48C130.877 47.736 132.141 47.864 133.389 47.864ZM149.198 21.464L156.35 20.312V27.752H164.942V33.704H156.35V42.584C156.35 44.088 156.606 45.288 157.118 46.184C157.662 47.08 158.734 47.528 160.334 47.528C161.102 47.528 161.886 47.464 162.686 47.336C163.518 47.176 164.27 46.968 164.942 46.712L165.95 52.28C165.086 52.632 164.126 52.936 163.07 53.192C162.014 53.448 160.718 53.576 159.182 53.576C157.23 53.576 155.614 53.32 154.334 52.808C153.054 52.264 152.03 51.528 151.262 50.6C150.494 49.64 149.95 48.488 149.63 47.144C149.342 45.8 149.198 44.312 149.198 42.68V21.464ZM193.445 40.328C193.445 42.312 193.157 44.136 192.581 45.8C192.005 47.432 191.173 48.84 190.085 50.024C188.997 51.176 187.685 52.072 186.149 52.712C184.645 53.352 182.949 53.672 181.061 53.672C179.205 53.672 177.509 53.352 175.973 52.712C174.469 52.072 173.173 51.176 172.085 50.024C170.997 48.84 170.149 47.432 169.541 45.8C168.933 44.136 168.629 42.312 168.629 40.328C168.629 38.344 168.933 36.536 169.541 34.904C170.181 33.272 171.045 31.88 172.133 30.728C173.253 29.576 174.565 28.68 176.069 28.04C177.605 27.4 179.269 27.08 181.061 27.08C182.885 27.08 184.549 27.4 186.053 28.04C187.589 28.68 188.901 29.576 189.989 30.728C191.077 31.88 191.925 33.272 192.533 34.904C193.141 36.536 193.445 38.344 193.445 40.328ZM186.149 40.328C186.149 38.12 185.701 36.392 184.805 35.144C183.941 33.864 182.693 33.224 181.061 33.224C179.429 33.224 178.165 33.864 177.269 35.144C176.373 36.392 175.925 38.12 175.925 40.328C175.925 42.536 176.373 44.296 177.269 45.608C178.165 46.888 179.429 47.528 181.061 47.528C182.693 47.528 183.941 46.888 184.805 45.608C185.701 44.296 186.149 42.536 186.149 40.328ZM212.857 39.608C212.857 37.304 212.553 35.672 211.945 34.712C211.369 33.752 210.361 33.272 208.921 33.272C208.473 33.272 208.009 33.304 207.529 33.368C207.049 33.4 206.585 33.448 206.137 33.512V53H198.985V28.616C199.593 28.456 200.297 28.296 201.097 28.136C201.929 27.944 202.793 27.784 203.689 27.656C204.617 27.496 205.561 27.384 206.521 27.32C207.481 27.224 208.425 27.176 209.353 27.176C211.177 27.176 212.649 27.416 213.769 27.896C214.921 28.344 215.865 28.888 216.601 29.528C217.625 28.792 218.793 28.216 220.105 27.8C221.449 27.384 222.681 27.176 223.801 27.176C225.817 27.176 227.465 27.464 228.745 28.04C230.057 28.584 231.097 29.368 231.865 30.392C232.633 31.416 233.161 32.632 233.449 34.04C233.737 35.448 233.881 37.016 233.881 38.744V53H226.729V39.608C226.729 37.304 226.425 35.672 225.817 34.712C225.241 33.752 224.233 33.272 222.793 33.272C222.409 33.272 221.865 33.368 221.161 33.56C220.489 33.752 219.929 33.992 219.481 34.28C219.705 35.016 219.849 35.8 219.913 36.632C219.977 37.432 220.009 38.296 220.009 39.224V53H212.857V39.608Z" fill="black"/>
<path d="M251.944 53.432C250.12 53.432 248.296 53.368 246.472 53.24C244.68 53.144 242.808 52.888 240.856 52.472V20.216C242.392 19.928 244.072 19.72 245.896 19.592C247.72 19.432 249.416 19.352 250.984 19.352C253.096 19.352 255.032 19.512 256.792 19.832C258.584 20.12 260.12 20.632 261.4 21.368C262.68 22.104 263.672 23.08 264.376 24.296C265.112 25.48 265.48 26.952 265.48 28.712C265.48 31.368 264.2 33.464 261.64 35C263.752 35.8 265.192 36.888 265.96 38.264C266.728 39.64 267.112 41.192 267.112 42.92C267.112 46.408 265.832 49.032 263.272 50.792C260.744 52.552 256.968 53.432 251.944 53.432ZM248.152 38.504V47.096C248.696 47.16 249.288 47.208 249.928 47.24C250.568 47.272 251.272 47.288 252.04 47.288C254.28 47.288 256.088 46.968 257.464 46.328C258.84 45.688 259.528 44.504 259.528 42.776C259.528 41.24 258.952 40.152 257.8 39.512C256.648 38.84 255 38.504 252.856 38.504H248.152ZM248.152 32.792H251.8C254.104 32.792 255.752 32.504 256.744 31.928C257.736 31.32 258.232 30.36 258.232 29.048C258.232 27.704 257.72 26.76 256.696 26.216C255.672 25.672 254.168 25.4 252.184 25.4C251.544 25.4 250.856 25.416 250.12 25.448C249.384 25.448 248.728 25.48 248.152 25.544V32.792ZM296.242 40.328C296.242 42.312 295.954 44.136 295.378 45.8C294.802 47.432 293.97 48.84 292.882 50.024C291.794 51.176 290.482 52.072 288.946 52.712C287.442 53.352 285.746 53.672 283.858 53.672C282.002 53.672 280.306 53.352 278.77 52.712C277.266 52.072 275.97 51.176 274.882 50.024C273.794 48.84 272.946 47.432 272.338 45.8C271.73 44.136 271.426 42.312 271.426 40.328C271.426 38.344 271.73 36.536 272.338 34.904C272.978 33.272 273.842 31.88 274.93 30.728C276.05 29.576 277.362 28.68 278.866 28.04C280.402 27.4 282.066 27.08 283.858 27.08C285.682 27.08 287.346 27.4 288.85 28.04C290.386 28.68 291.698 29.576 292.786 30.728C293.874 31.88 294.722 33.272 295.33 34.904C295.938 36.536 296.242 38.344 296.242 40.328ZM288.946 40.328C288.946 38.12 288.498 36.392 287.602 35.144C286.738 33.864 285.49 33.224 283.858 33.224C282.226 33.224 280.962 33.864 280.066 35.144C279.17 36.392 278.722 38.12 278.722 40.328C278.722 42.536 279.17 44.296 280.066 45.608C280.962 46.888 282.226 47.528 283.858 47.528C285.49 47.528 286.738 46.888 287.602 45.608C288.498 44.296 288.946 42.536 288.946 40.328ZM301.542 21.464L308.694 20.312V27.752H317.286V33.704H308.694V42.584C308.694 44.088 308.95 45.288 309.462 46.184C310.006 47.08 311.078 47.528 312.678 47.528C313.446 47.528 314.23 47.464 315.03 47.336C315.862 47.176 316.614 46.968 317.286 46.712L318.294 52.28C317.43 52.632 316.47 52.936 315.414 53.192C314.358 53.448 313.062 53.576 311.526 53.576C309.574 53.576 307.958 53.32 306.678 52.808C305.398 52.264 304.374 51.528 303.606 50.6C302.838 49.64 302.294 48.488 301.974 47.144C301.686 45.8 301.542 44.312 301.542 42.68V21.464Z" fill="#1E90FF"/>
</svg>
